<svg width="24" height="24" viewBox="0 0 24 24" fill="none" xmlns="http://www.w3.org/2000/svg">
<g clip-path="url(#clip0_1528_6375)">
<rect width="24" height="24" rx="2" fill="#E05040"/>
<mask id="path-2-outside-1_1528_6375" maskUnits="userSpaceOnUse" x="-0.683873" y="2.69607" width="21.0981" height="19.4958" fill="black">
<rect fill="white" x="-0.683873" y="2.69607" width="21.0981" height="19.4958"/>
<path fill-rule="evenodd" clip-rule="evenodd" d="M14.0817 5.44144C14.3244 5.30959 14.4142 5.00601 14.2823 4.76338C14.1504 4.52075 13.8469 4.43095 13.6042 4.56281C13.2928 4.73207 13.0099 5.00621 12.7716 5.28396C12.5279 5.568 12.3038 5.8883 12.1154 6.18326C11.9262 6.47947 11.7681 6.75798 11.6575 6.96209C11.6551 6.96648 11.6527 6.97083 11.6504 6.97515C10.7388 6.87025 10.0077 7.0862 9.44637 7.53197C8.83087 8.02073 8.483 8.73585 8.28238 9.41406C8.08014 10.0977 8.01205 10.7962 7.9927 11.3147C7.98295 11.576 7.98543 11.7963 7.99042 11.9524C7.99292 12.0306 7.99606 12.0929 7.99864 12.1366L8.00099 12.1739C7.88712 14.5143 7.14663 16.3256 6.43537 17.5518C6.07813 18.1677 5.72875 18.635 5.47119 18.946C5.34248 19.1014 5.23693 19.2174 5.16513 19.2931C5.12923 19.331 5.1018 19.3587 5.08416 19.3763L5.06521 19.3948L5.06196 19.398C4.8832 19.5663 4.85252 19.8403 4.99058 20.0435C5.1288 20.2469 5.39446 20.3197 5.61702 20.2149C9.12296 18.5654 11.0567 16.728 12.17 14.9899C13.1793 13.4142 13.4915 11.949 13.7144 10.903C13.7365 10.7993 13.7577 10.6997 13.7786 10.6045C14.0525 9.35957 13.6524 8.46132 13.1673 7.88511C12.9706 7.6514 12.763 7.4736 12.5877 7.34541C12.6855 7.1688 12.8122 6.95012 12.9582 6.72153C13.1319 6.44948 13.3281 6.17114 13.5306 5.93505C13.7385 5.69267 13.9277 5.52518 14.0817 5.44144Z"/>
</mask>
<path fill-rule="evenodd" clip-rule="evenodd" d="M14.0817 5.44144C14.3244 5.30959 14.4142 5.00601 14.2823 4.76338C14.1504 4.52075 13.8469 4.43095 13.6042 4.56281C13.2928 4.73207 13.0099 5.00621 12.7716 5.28396C12.5279 5.568 12.3038 5.8883 12.1154 6.18326C11.9262 6.47947 11.7681 6.75798 11.6575 6.96209C11.6551 6.96648 11.6527 6.97083 11.6504 6.97515C10.7388 6.87025 10.0077 7.0862 9.44637 7.53197C8.83087 8.02073 8.483 8.73585 8.28238 9.41406C8.08014 10.0977 8.01205 10.7962 7.9927 11.3147C7.98295 11.576 7.98543 11.7963 7.99042 11.9524C7.99292 12.0306 7.99606 12.0929 7.99864 12.1366L8.00099 12.1739C7.88712 14.5143 7.14663 16.3256 6.43537 17.5518C6.07813 18.1677 5.72875 18.635 5.47119 18.946C5.34248 19.1014 5.23693 19.2174 5.16513 19.2931C5.12923 19.331 5.1018 19.3587 5.08416 19.3763L5.06521 19.3948L5.06196 19.398C4.8832 19.5663 4.85252 19.8403 4.99058 20.0435C5.1288 20.2469 5.39446 20.3197 5.61702 20.2149C9.12296 18.5654 11.0567 16.728 12.17 14.9899C13.1793 13.4142 13.4915 11.949 13.7144 10.903C13.7365 10.7993 13.7577 10.6997 13.7786 10.6045C14.0525 9.35957 13.6524 8.46132 13.1673 7.88511C12.9706 7.6514 12.763 7.4736 12.5877 7.34541C12.6855 7.1688 12.8122 6.95012 12.9582 6.72153C13.1319 6.44948 13.3281 6.17114 13.5306 5.93505C13.7385 5.69267 13.9277 5.52518 14.0817 5.44144Z" fill="white"/>
<path d="M14.2823 4.76338L13.4037 5.24087L13.4037 5.24088L14.2823 4.76338ZM14.0817 5.44144L14.5592 6.32008L14.0817 5.44144ZM13.6042 4.56281L13.1267 3.68417L13.1267 3.68418L13.6042 4.56281ZM12.7716 5.28396L12.0126 4.63287L12.0126 4.63287L12.7716 5.28396ZM12.1154 6.18326L12.9582 6.72153L12.1154 6.18326ZM11.6575 6.96209L10.7784 6.48547L10.7783 6.48551L11.6575 6.96209ZM11.6504 6.97515L11.5361 7.96859C11.9421 8.01531 12.3357 7.81028 12.53 7.45079L11.6504 6.97515ZM9.44637 7.53197L10.0682 8.31509L9.44637 7.53197ZM8.28238 9.41406L9.2413 9.69772L9.2413 9.69772L8.28238 9.41406ZM7.9927 11.3147L8.992 11.352L8.992 11.352L7.9927 11.3147ZM7.99042 11.9524L6.99093 11.9844L6.99093 11.9844L7.99042 11.9524ZM7.99864 12.1366L7.00038 12.1956L7.00062 12.1995L7.99864 12.1366ZM8.00099 12.1739L8.99981 12.2225C9.00162 12.1853 9.00135 12.1481 8.99901 12.111L8.00099 12.1739ZM6.43537 17.5518L7.30038 18.0536L7.30038 18.0536L6.43537 17.5518ZM5.47119 18.946L6.2413 19.5839L6.2413 19.5839L5.47119 18.946ZM5.16513 19.2931L5.89076 19.9812L5.89078 19.9812L5.16513 19.2931ZM5.08416 19.3763L5.78436 20.0902L5.78872 20.0859L5.08416 19.3763ZM5.06521 19.3948L5.75884 20.1152L5.7654 20.1088L5.06521 19.3948ZM5.06196 19.398L5.74767 20.1259L5.75557 20.1183L5.06196 19.398ZM4.99058 20.0435L4.16342 20.6055L4.16342 20.6055L4.99058 20.0435ZM5.61702 20.2149L6.04275 21.1198L6.04275 21.1198L5.61702 20.2149ZM12.17 14.9899L13.0121 15.5293L12.17 14.9899ZM13.7144 10.903L14.6924 11.1114L14.6924 11.1114L13.7144 10.903ZM13.7786 10.6045L12.802 10.3896L12.802 10.3896L13.7786 10.6045ZM13.1673 7.88511L13.9323 7.24109L13.9323 7.24109L13.1673 7.88511ZM12.5877 7.34541L11.7128 6.86114C11.4688 7.30185 11.5908 7.85521 11.9974 8.15258L12.5877 7.34541ZM12.9582 6.72153L12.1154 6.18326L12.1154 6.18326L12.9582 6.72153ZM13.5306 5.93505L12.7716 5.28396L12.7716 5.28396L13.5306 5.93505ZM13.4037 5.24088C13.2718 4.99825 13.3616 4.69467 13.6042 4.56281L14.5592 6.32008C15.2871 5.92451 15.5565 5.01377 15.1609 4.28588L13.4037 5.24088ZM14.0817 5.44144C13.8391 5.5733 13.5355 5.4835 13.4037 5.24087L15.1609 4.28589C14.7654 3.558 13.8546 3.28861 13.1267 3.68417L14.0817 5.44144ZM13.5306 5.93506C13.7383 5.69292 13.9275 5.52527 14.0817 5.44144L13.1267 3.68418C12.6581 3.93888 12.2814 4.3195 12.0126 4.63287L13.5306 5.93506ZM12.9582 6.72153C13.1319 6.4495 13.3281 6.17115 13.5306 5.93505L12.0126 4.63287C11.7278 4.96485 11.4756 5.3271 11.2726 5.64499L12.9582 6.72153ZM12.5366 7.43871C12.6393 7.24919 12.7852 6.99232 12.9582 6.72153L11.2726 5.64499C11.0672 5.96662 10.8969 6.26677 10.7784 6.48547L12.5366 7.43871ZM12.53 7.45079C12.5322 7.44683 12.5344 7.44279 12.5366 7.43866L10.7783 6.48551C10.7758 6.49016 10.7733 6.49483 10.7708 6.49951L12.53 7.45079ZM11.7647 5.9817C10.6202 5.85 9.61658 6.11986 8.82449 6.74885L10.0682 8.31509C10.3989 8.05255 10.8574 7.8905 11.5361 7.96859L11.7647 5.9817ZM8.82449 6.74885C7.98288 7.41717 7.55328 8.35345 7.32345 9.13041L9.2413 9.69772C9.41271 9.11824 9.67886 8.62429 10.0682 8.31509L8.82449 6.74885ZM7.32345 9.13041C7.08873 9.92389 7.01444 10.7134 6.99339 11.2774L8.992 11.352C9.00965 10.879 9.07155 10.2716 9.2413 9.69772L7.32345 9.13041ZM6.99339 11.2774C6.98265 11.5655 6.98533 11.8092 6.99093 11.9844L8.98991 11.9205C8.98553 11.7834 8.98325 11.5865 8.992 11.352L6.99339 11.2774ZM6.99093 11.9844C6.99374 12.0722 6.99731 12.1436 7.00039 12.1956L8.99689 12.0775C8.9948 12.0422 8.9921 11.9889 8.98991 11.9205L6.99093 11.9844ZM7.00062 12.1995L7.00298 12.2369L8.99901 12.111L8.99666 12.0736L7.00062 12.1995ZM7.00218 12.1253C6.89754 14.2758 6.21826 15.9331 5.57035 17.0501L7.30038 18.0536C8.075 16.7181 8.87669 14.7529 8.99981 12.2225L7.00218 12.1253ZM5.57036 17.0501C5.24468 17.6115 4.92842 18.0336 4.70108 18.3081L6.2413 19.5839C6.52909 19.2365 6.91157 18.7239 7.30038 18.0536L5.57036 17.0501ZM4.70108 18.3081C4.58762 18.445 4.49702 18.5444 4.43948 18.6051L5.89078 19.9812C5.97685 19.8904 6.09734 19.7577 6.2413 19.5839L4.70108 18.3081ZM4.43949 18.605C4.41072 18.6354 4.39033 18.656 4.37959 18.6666L5.78872 20.0859C5.81327 20.0615 5.84774 20.0266 5.89076 19.9812L4.43949 18.605ZM4.38396 18.6623L4.36502 18.6809L5.7654 20.1088L5.78435 20.0902L4.38396 18.6623ZM4.37161 18.6745L4.36836 18.6776L5.75557 20.1183L5.75881 20.1152L4.37161 18.6745ZM4.3763 18.67C3.84159 19.1737 3.74802 19.994 4.16342 20.6055L5.81774 19.4815C5.95703 19.6865 5.92482 19.959 5.74763 20.1259L4.3763 18.67ZM4.16342 20.6055C4.57809 21.2158 5.37507 21.4339 6.04275 21.1198L5.1913 19.3101C5.41386 19.2054 5.67952 19.2781 5.81774 19.4815L4.16342 20.6055ZM6.04275 21.1198C9.68448 19.4064 11.7783 17.4554 13.0121 15.5293L11.3279 14.4506C10.3351 16.0006 8.56144 17.7245 5.1913 19.3101L6.04275 21.1198ZM13.0121 15.5293C14.1262 13.7899 14.4669 12.1697 14.6924 11.1114L12.7363 10.6946C12.5161 11.7283 12.2325 13.0385 11.3279 14.4506L13.0121 15.5293ZM14.6924 11.1114C14.7147 11.007 14.7352 10.9107 14.7553 10.8193L12.802 10.3896C12.7802 10.4886 12.7583 10.5916 12.7363 10.6946L14.6924 11.1114ZM14.7553 10.8193C15.1055 9.22719 14.587 8.01875 13.9323 7.24109L12.4023 8.52913C12.7178 8.90389 12.9994 9.49195 12.802 10.3896L14.7553 10.8193ZM13.9323 7.24109C13.6741 6.93436 13.404 6.70352 13.178 6.53825L11.9974 8.15258C12.1219 8.24368 12.267 8.36845 12.4023 8.52914L13.9323 7.24109ZM12.1154 6.18326C11.9555 6.43359 11.818 6.67099 11.7128 6.86114L13.4626 7.82969C13.5529 7.66662 13.6688 7.46666 13.8009 7.25979L12.1154 6.18326ZM12.7716 5.28396C12.5279 5.56801 12.3038 5.88832 12.1154 6.18326L13.8009 7.2598C13.9601 7.01064 14.1282 6.77427 14.2896 6.58615L12.7716 5.28396ZM13.6042 4.56281C13.2925 4.73221 13.0095 5.00659 12.7716 5.28396L14.2896 6.58615C14.3713 6.49095 14.4397 6.42175 14.4925 6.37462C14.5483 6.32476 14.5708 6.31382 14.5592 6.32008L13.6042 4.56281Z" fill="#E05040" mask="url(#path-2-outside-1_1528_6375)"/>
<mask id="path-4-outside-2_1528_6375" maskUnits="userSpaceOnUse" x="4.31613" y="2.69607" width="21.0981" height="19.4958" fill="black">
<rect fill="white" x="4.31613" y="2.69607" width="21.0981" height="19.4958"/>
<path fill-rule="evenodd" clip-rule="evenodd" d="M19.0817 5.44144C19.3244 5.30959 19.4142 5.00601 19.2823 4.76338C19.1504 4.52075 18.8469 4.43095 18.6042 4.56281C18.2928 4.73207 18.0099 5.00621 17.7716 5.28396C17.5279 5.568 17.3038 5.8883 17.1154 6.18326C16.9262 6.47947 16.7681 6.75798 16.6575 6.96209C16.6551 6.96648 16.6527 6.97083 16.6504 6.97515C15.7388 6.87025 15.0077 7.0862 14.4464 7.53197C13.8309 8.02073 13.483 8.73585 13.2824 9.41406C13.0801 10.0977 13.012 10.7962 12.9927 11.3147C12.983 11.576 12.9854 11.7963 12.9904 11.9524C12.9929 12.0306 12.9961 12.0929 12.9986 12.1366L13.001 12.1739C12.8871 14.5143 12.1466 16.3256 11.4354 17.5518C11.0781 18.1677 10.7288 18.635 10.4712 18.946C10.3425 19.1014 10.2369 19.2174 10.1651 19.2931C10.1292 19.331 10.1018 19.3587 10.0842 19.3763L10.0652 19.3948L10.062 19.398C9.8832 19.5663 9.85252 19.8403 9.99058 20.0435C10.1288 20.2469 10.3945 20.3197 10.617 20.2149C14.123 18.5654 16.0567 16.728 17.17 14.9899C18.1793 13.4142 18.4915 11.949 18.7144 10.903C18.7365 10.7993 18.7577 10.6997 18.7786 10.6045C19.0525 9.35957 18.6524 8.46132 18.1673 7.88511C17.9706 7.6514 17.763 7.4736 17.5877 7.34541C17.6855 7.1688 17.8122 6.95012 17.9582 6.72153C18.1319 6.44948 18.3281 6.17114 18.5306 5.93505C18.7385 5.69267 18.9277 5.52518 19.0817 5.44144Z"/>
</mask>
<path fill-rule="evenodd" clip-rule="evenodd" d="M19.0817 5.44144C19.3244 5.30959 19.4142 5.00601 19.2823 4.76338C19.1504 4.52075 18.8469 4.43095 18.6042 4.56281C18.2928 4.73207 18.0099 5.00621 17.7716 5.28396C17.5279 5.568 17.3038 5.8883 17.1154 6.18326C16.9262 6.47947 16.7681 6.75798 16.6575 6.96209C16.6551 6.96648 16.6527 6.97083 16.6504 6.97515C15.7388 6.87025 15.0077 7.0862 14.4464 7.53197C13.8309 8.02073 13.483 8.73585 13.2824 9.41406C13.0801 10.0977 13.012 10.7962 12.9927 11.3147C12.983 11.576 12.9854 11.7963 12.9904 11.9524C12.9929 12.0306 12.9961 12.0929 12.9986 12.1366L13.001 12.1739C12.8871 14.5143 12.1466 16.3256 11.4354 17.5518C11.0781 18.1677 10.7288 18.635 10.4712 18.946C10.3425 19.1014 10.2369 19.2174 10.1651 19.2931C10.1292 19.331 10.1018 19.3587 10.0842 19.3763L10.0652 19.3948L10.062 19.398C9.8832 19.5663 9.85252 19.8403 9.99058 20.0435C10.1288 20.2469 10.3945 20.3197 10.617 20.2149C14.123 18.5654 16.0567 16.728 17.17 14.9899C18.1793 13.4142 18.4915 11.949 18.7144 10.903C18.7365 10.7993 18.7577 10.6997 18.7786 10.6045C19.0525 9.35957 18.6524 8.46132 18.1673 7.88511C17.9706 7.6514 17.763 7.4736 17.5877 7.34541C17.6855 7.1688 17.8122 6.95012 17.9582 6.72153C18.1319 6.44948 18.3281 6.17114 18.5306 5.93505C18.7385 5.69267 18.9277 5.52518 19.0817 5.44144Z" fill="white"/>
<path d="M19.2823 4.76338L18.4037 5.24087L18.4037 5.24088L19.2823 4.76338ZM19.0817 5.44144L19.5592 6.32008L19.0817 5.44144ZM18.6042 4.56281L18.1267 3.68417L18.1267 3.68418L18.6042 4.56281ZM17.7716 5.28396L17.0126 4.63287L17.0126 4.63287L17.7716 5.28396ZM17.1154 6.18326L17.9582 6.72153L17.1154 6.18326ZM16.6575 6.96209L15.7784 6.48547L15.7783 6.48551L16.6575 6.96209ZM16.6504 6.97515L16.5361 7.96859C16.9421 8.01531 17.3357 7.81028 17.53 7.45079L16.6504 6.97515ZM14.4464 7.53197L15.0682 8.31509L14.4464 7.53197ZM13.2824 9.41406L14.2413 9.69772L14.2413 9.69772L13.2824 9.41406ZM12.9927 11.3147L13.992 11.352L13.992 11.352L12.9927 11.3147ZM12.9904 11.9524L11.9909 11.9844L11.9909 11.9844L12.9904 11.9524ZM12.9986 12.1366L12.0004 12.1956L12.0006 12.1995L12.9986 12.1366ZM13.001 12.1739L13.9998 12.2225C14.0016 12.1853 14.0014 12.1481 13.999 12.111L13.001 12.1739ZM11.4354 17.5518L12.3004 18.0536L12.3004 18.0536L11.4354 17.5518ZM10.4712 18.946L11.2413 19.5839L11.2413 19.5839L10.4712 18.946ZM10.1651 19.2931L10.8908 19.9812L10.8908 19.9812L10.1651 19.2931ZM10.0842 19.3763L10.7844 20.0902L10.7887 20.0859L10.0842 19.3763ZM10.0652 19.3948L10.7588 20.1152L10.7654 20.1088L10.0652 19.3948ZM10.062 19.398L10.7477 20.1259L10.7556 20.1183L10.062 19.398ZM9.99058 20.0435L9.16342 20.6055L9.16342 20.6055L9.99058 20.0435ZM10.617 20.2149L11.0427 21.1198L11.0427 21.1198L10.617 20.2149ZM17.17 14.9899L18.0121 15.5293L17.17 14.9899ZM18.7144 10.903L19.6924 11.1114L19.6924 11.1114L18.7144 10.903ZM18.7786 10.6045L17.802 10.3896L17.802 10.3896L18.7786 10.6045ZM18.1673 7.88511L18.9323 7.24109L18.9323 7.24109L18.1673 7.88511ZM17.5877 7.34541L16.7128 6.86114C16.4688 7.30185 16.5908 7.85521 16.9974 8.15258L17.5877 7.34541ZM17.9582 6.72153L17.1154 6.18326L17.1154 6.18326L17.9582 6.72153ZM18.5306 5.93505L17.7716 5.28396L17.7716 5.28396L18.5306 5.93505ZM18.4037 5.24088C18.2718 4.99825 18.3616 4.69467 18.6042 4.56281L19.5592 6.32008C20.2871 5.92451 20.5565 5.01377 20.1609 4.28588L18.4037 5.24088ZM19.0817 5.44144C18.8391 5.5733 18.5355 5.4835 18.4037 5.24087L20.1609 4.28589C19.7654 3.558 18.8546 3.28861 18.1267 3.68417L19.0817 5.44144ZM18.5306 5.93506C18.7383 5.69292 18.9275 5.52527 19.0817 5.44144L18.1267 3.68418C17.6581 3.93888 17.2814 4.3195 17.0126 4.63287L18.5306 5.93506ZM17.9582 6.72153C18.1319 6.4495 18.3281 6.17115 18.5306 5.93505L17.0126 4.63287C16.7278 4.96485 16.4756 5.3271 16.2726 5.64499L17.9582 6.72153ZM17.5366 7.43871C17.6393 7.24919 17.7852 6.99232 17.9582 6.72153L16.2726 5.64499C16.0672 5.96662 15.8969 6.26677 15.7784 6.48547L17.5366 7.43871ZM17.53 7.45079C17.5322 7.44683 17.5344 7.44279 17.5366 7.43866L15.7783 6.48551C15.7758 6.49016 15.7733 6.49483 15.7708 6.49951L17.53 7.45079ZM16.7647 5.9817C15.6202 5.85 14.6166 6.11986 13.8245 6.74885L15.0682 8.31509C15.3989 8.05255 15.8574 7.8905 16.5361 7.96859L16.7647 5.9817ZM13.8245 6.74885C12.9829 7.41717 12.5533 8.35345 12.3234 9.13041L14.2413 9.69772C14.4127 9.11824 14.6789 8.62429 15.0682 8.31509L13.8245 6.74885ZM12.3234 9.13041C12.0887 9.92389 12.0144 10.7134 11.9934 11.2774L13.992 11.352C14.0097 10.879 14.0715 10.2716 14.2413 9.69772L12.3234 9.13041ZM11.9934 11.2774C11.9826 11.5655 11.9853 11.8092 11.9909 11.9844L13.9899 11.9205C13.9855 11.7834 13.9833 11.5865 13.992 11.352L11.9934 11.2774ZM11.9909 11.9844C11.9937 12.0722 11.9973 12.1436 12.0004 12.1956L13.9969 12.0775C13.9948 12.0422 13.9921 11.9889 13.9899 11.9205L11.9909 11.9844ZM12.0006 12.1995L12.003 12.2369L13.999 12.111L13.9967 12.0736L12.0006 12.1995ZM12.0022 12.1253C11.8975 14.2758 11.2183 15.9331 10.5704 17.0501L12.3004 18.0536C13.075 16.7181 13.8767 14.7529 13.9998 12.2225L12.0022 12.1253ZM10.5704 17.0501C10.2447 17.6115 9.92842 18.0336 9.70108 18.3081L11.2413 19.5839C11.5291 19.2365 11.9116 18.7239 12.3004 18.0536L10.5704 17.0501ZM9.70108 18.3081C9.58762 18.445 9.49702 18.5444 9.43948 18.6051L10.8908 19.9812C10.9768 19.8904 11.0973 19.7577 11.2413 19.5839L9.70108 18.3081ZM9.43949 18.605C9.41072 18.6354 9.39033 18.656 9.37959 18.6666L10.7887 20.0859C10.8133 20.0615 10.8477 20.0266 10.8908 19.9812L9.43949 18.605ZM9.38396 18.6623L9.36502 18.6809L10.7654 20.1088L10.7843 20.0902L9.38396 18.6623ZM9.37161 18.6745L9.36836 18.6776L10.7556 20.1183L10.7588 20.1152L9.37161 18.6745ZM9.3763 18.67C8.84159 19.1737 8.74802 19.994 9.16342 20.6055L10.8177 19.4815C10.957 19.6865 10.9248 19.959 10.7476 20.1259L9.3763 18.67ZM9.16342 20.6055C9.57809 21.2158 10.3751 21.4339 11.0427 21.1198L10.1913 19.3101C10.4139 19.2054 10.6795 19.2781 10.8177 19.4815L9.16342 20.6055ZM11.0427 21.1198C14.6845 19.4064 16.7783 17.4554 18.0121 15.5293L16.3279 14.4506C15.3351 16.0006 13.5614 17.7245 10.1913 19.3101L11.0427 21.1198ZM18.0121 15.5293C19.1262 13.7899 19.4669 12.1697 19.6924 11.1114L17.7363 10.6946C17.5161 11.7283 17.2325 13.0385 16.3279 14.4506L18.0121 15.5293ZM19.6924 11.1114C19.7147 11.007 19.7352 10.9107 19.7553 10.8193L17.802 10.3896C17.7802 10.4886 17.7583 10.5916 17.7363 10.6946L19.6924 11.1114ZM19.7553 10.8193C20.1055 9.22719 19.587 8.01875 18.9323 7.24109L17.4023 8.52913C17.7178 8.90389 17.9994 9.49195 17.802 10.3896L19.7553 10.8193ZM18.9323 7.24109C18.6741 6.93436 18.404 6.70352 18.178 6.53825L16.9974 8.15258C17.1219 8.24368 17.267 8.36845 17.4023 8.52914L18.9323 7.24109ZM17.1154 6.18326C16.9555 6.43359 16.818 6.67099 16.7128 6.86114L18.4626 7.82969C18.5529 7.66662 18.6688 7.46666 18.8009 7.25979L17.1154 6.18326ZM17.7716 5.28396C17.5279 5.56801 17.3038 5.88832 17.1154 6.18326L18.8009 7.2598C18.9601 7.01064 19.1282 6.77427 19.2896 6.58615L17.7716 5.28396ZM18.6042 4.56281C18.2925 4.73221 18.0095 5.00659 17.7716 5.28396L19.2896 6.58615C19.3713 6.49095 19.4397 6.42175 19.4925 6.37462C19.5483 6.32476 19.5708 6.31382 19.5592 6.32008L18.6042 4.56281Z" fill="#E05040" mask="url(#path-4-outside-2_1528_6375)"/>
</g>
<defs>
<clipPath id="clip0_1528_6375">
<rect width="24" height="24" rx="2" fill="white"/>
</clipPath>
</defs>
</svg>
