<svg width="24" height="24" viewBox="0 0 24 24" fill="none" xmlns="http://www.w3.org/2000/svg">
<rect x="0.5" y="0.5" width="23" height="23" rx="1.5" fill="white"/>
<rect x="0.5" y="0.5" width="23" height="23" rx="1.5" stroke="#8DB362"/>
<path fill-rule="evenodd" clip-rule="evenodd" d="M7.21265 20.5412C9.66691 20.4668 13.8286 19.866 16.5274 16.9102C20.5522 12.4971 19.793 4.51233 19.793 4.51233C19.793 4.51233 12.5026 3.68089 8.47333 8.08899C5.58131 11.2529 5.15844 16.262 5.15012 18.8375C6.22534 17.1191 7.66636 14.8757 8.59409 13.668C10.232 11.5358 12.1065 10.2413 12.1065 10.2413C12.1065 10.2413 9.8939 12.9723 8.59613 15.8072C8.09962 16.8917 7.61908 18.7029 7.21265 20.5412Z" fill="#8DB362"/>
</svg>
